<svg fill="current" stroke="current"  xmlns="http://www.w3.org/2000/svg" width="20" height="20" viewBox="0 0 24 24">
 <g>
  <path d="m12,14c2.206,0 4,-1.794 4,-4s-1.794,-4 -4,-4s-4,1.794 -4,4s1.794,4 4,4zm0,-6c1.103,0 2,0.897 2,2s-0.897,2 -2,2s-2,-0.897 -2,-2s0.897,-2 2,-2z"/>
  <path d="m11.42,21.814c0.174,0.124 0.377,0.186 0.58,0.186s0.406,-0.062 0.58,-0.186c0.304,-0.215 7.449,-5.374 7.42,-11.814c0,-4.411 -3.589,-8 -8,-8s-8,3.589 -8,7.995c-0.029,6.445 7.116,11.604 7.42,11.819zm0.58,-17.814c3.309,0 6,2.691 6,6.005c0.021,4.438 -4.388,8.423 -6,9.73c-1.611,-1.308 -6.021,-5.294 -6,-9.735c0,-3.309 2.691,-6 6,-6z"/>
  <rect transform="rotate(-45 11.813852310180659,12.28270626068115) " id="svg_3" height="1.55108" width="30.92827" y="11.50717" x="-3.65028"/>
 </g>
</svg>