<svg fill="current" stroke="current" xmlns="http://www.w3.org/2000/svg" width="20" height="20" viewBox="0 0 16 16">

 <g>
  <title>Layer 1</title>
  <path d="m1,5.7l11,0l0,-1.4l-11,0l0,1.4zm13,-3.7c-0.55228,0 -1,0.44772 -1,1l0,4c0,0.55228 0.44772,1 1,1c0.55228,0 1,-0.44772 1,-1l0,-4c0,-0.55228 -0.44772,-1 -1,-1zm-6,8.3l0,-1.3c0,-0.55228 -0.44772,-1 -1,-1c-0.55228,0 -1,0.44772 -1,1l0,4c0,0.55228 0.44772,1 1,1c0.55228,0 1,-0.44772 1,-1l0,-1.3l7,0l0,-1.4l-7,0zm-7,1.4l4,0l0,-1.4l-4,0l0,1.4z"/>
  <rect transform="rotate(-45 7.944164752960205,7.914941310882568) " height="1.06342" width="21.121" y="7.38323" x="-2.61634"/>
 </g>
</svg>